<svg xmlns="http://www.w3.org/2000/svg" width="48" height="48" viewBox="0 0 44 20">
    <g>
        <g>
            <path fill="#ff3e3a" d="M43.668 7.295c-.501-1.87-1.372-3.417-2.89-4.865l-.029-.028-9.591 7.009 2.34 3.324 6.023-4.399c.078.158.11.354.119.399.435 2.225-.432 4.53-2.242 5.853a5.57 5.57 0 0 1-4.243 1.006 5.648 5.648 0 0 1-3.7-2.35c-1.826-2.605-1.235-6.24 1.317-8.105a5.58 5.58 0 0 1 3.499-1.083V0H10.435v4.064h3.942l-3.523 9.21L5.594 0H0v19.648h4.073V6.789l5.024 12.859h3.476l5.024-13.025v13.025h4.209V4.064h4.135c-.027.04-.169.258-.213.328-2.125 3.39-2.15 7.902.28 11.368 1.545 2.201 3.836 3.657 6.454 4.1a9.687 9.687 0 0 0 7.401-1.754c3.414-2.505 4.843-6.935 3.805-10.811"></path>
        </g>
    </g>
</svg>
