<svg xmlns="http://www.w3.org/2000/svg" width="48" height="48" viewBox="0 0 48.03 32">

<g>
   <path fill="#0A0A0A" d="M45.1,7.9c0.2,0.3,0.2,0.5,0.2,0.6h0c0,0,0,0.1,0,0.1C45.1,9,44.7,9.4,44,9.7c-1.9,1-4.4,2-7.4,3v0c0-1-0.9-1.7-3.1-2.4
         C19.6,5.6,8,9.7,3.9,12.2c1.3-3.7,3-7.7,4.1-8.3c5.7-3.2,13.4-4.5,21.3-3.5C36.6,1.3,42.7,4.2,45.1,7.9 M44.5,11.2
         c-1.1,3.5-2.5,7.6-3.3,8.5c-2.6,2.9-27.5,8.6-41.2,1.9C7.9,20.5,33.4,16.9,44.5,11.2">
   </path>
   <path fill="#0A0A0A" d="M20.3,9.6l-2.7,7.6c-0.5,0.1-1,0.2-1.5,0.3c-2.6,0.5-5.1,0.9-7.4,1.2c-2.4-1-5.5-2.9-5.6-4l0,0c0.4-0.7,3.6-2.8,9-4.1
         C14.3,10.1,17.1,9.6,20.3,9.6 M14.6,26.1l-1.8,5.1H5.5l2-5.8C9.9,25.8,12.3,26,14.6,26.1">
   </path>
</g>
</svg>
