<?xml version="1.0" encoding="utf-8"?>
<svg xmlns="http://www.w3.org/2000/svg" xmlns:xlink="http://www.w3.org/1999/xlink" xml:space="preserve" width="180" height="180" viewBox="0 0 296 296"><rect width="296" height="296" fill="#ffffff" x="0" y="0"/><g fill="#000000">
<g transform="translate(80,16) scale(1.3733333333333)"><circle cx="3" cy="3" r="3"/></g>
    <g transform="translate(88,16) scale(1.3733333333333)"><circle cx="3" cy="3" r="3"/></g>
    <g transform="translate(96,16) scale(1.3733333333333)"><circle cx="3" cy="3" r="3"/></g>
    <g transform="translate(112,16) scale(1.3733333333333)"><circle cx="3" cy="3" r="3"/></g>
    <g transform="translate(160,16) scale(1.3733333333333)"><circle cx="3" cy="3" r="3"/></g>
    <g transform="translate(200,16) scale(1.3733333333333)"><circle cx="3" cy="3" r="3"/></g>
    <g transform="translate(208,16) scale(1.3733333333333)"><circle cx="3" cy="3" r="3"/></g>
    <g transform="translate(80,24) scale(1.3733333333333)"><circle cx="3" cy="3" r="3"/></g>
    <g transform="translate(104,24) scale(1.3733333333333)"><circle cx="3" cy="3" r="3"/></g>
    <g transform="translate(112,24) scale(1.3733333333333)"><circle cx="3" cy="3" r="3"/></g>
    <g transform="translate(128,24) scale(1.3733333333333)"><circle cx="3" cy="3" r="3"/></g>
    <g transform="translate(136,24) scale(1.3733333333333)"><circle cx="3" cy="3" r="3"/></g>
    <g transform="translate(152,24) scale(1.3733333333333)"><circle cx="3" cy="3" r="3"/></g>
    <g transform="translate(168,24) scale(1.3733333333333)"><circle cx="3" cy="3" r="3"/></g>
    <g transform="translate(184,24) scale(1.3733333333333)"><circle cx="3" cy="3" r="3"/></g>
    <g transform="translate(208,24) scale(1.3733333333333)"><circle cx="3" cy="3" r="3"/></g>
    <g transform="translate(80,32) scale(1.3733333333333)"><circle cx="3" cy="3" r="3"/></g>
    <g transform="translate(88,32) scale(1.3733333333333)"><circle cx="3" cy="3" r="3"/></g>
    <g transform="translate(96,32) scale(1.3733333333333)"><circle cx="3" cy="3" r="3"/></g>
    <g transform="translate(104,32) scale(1.3733333333333)"><circle cx="3" cy="3" r="3"/></g>
    <g transform="translate(136,32) scale(1.3733333333333)"><circle cx="3" cy="3" r="3"/></g>
    <g transform="translate(160,32) scale(1.3733333333333)"><circle cx="3" cy="3" r="3"/></g>
    <g transform="translate(176,32) scale(1.3733333333333)"><circle cx="3" cy="3" r="3"/></g>
    <g transform="translate(184,32) scale(1.3733333333333)"><circle cx="3" cy="3" r="3"/></g>
    <g transform="translate(200,32) scale(1.3733333333333)"><circle cx="3" cy="3" r="3"/></g>
    <g transform="translate(208,32) scale(1.3733333333333)"><circle cx="3" cy="3" r="3"/></g>
    <g transform="translate(88,40) scale(1.3733333333333)"><circle cx="3" cy="3" r="3"/></g>
    <g transform="translate(112,40) scale(1.3733333333333)"><circle cx="3" cy="3" r="3"/></g>
    <g transform="translate(120,40) scale(1.3733333333333)"><circle cx="3" cy="3" r="3"/></g>
    <g transform="translate(128,40) scale(1.3733333333333)"><circle cx="3" cy="3" r="3"/></g>
    <g transform="translate(144,40) scale(1.3733333333333)"><circle cx="3" cy="3" r="3"/></g>
    <g transform="translate(152,40) scale(1.3733333333333)"><circle cx="3" cy="3" r="3"/></g>
    <g transform="translate(168,40) scale(1.3733333333333)"><circle cx="3" cy="3" r="3"/></g>
    <g transform="translate(176,40) scale(1.3733333333333)"><circle cx="3" cy="3" r="3"/></g>
    <g transform="translate(200,40) scale(1.3733333333333)"><circle cx="3" cy="3" r="3"/></g>
    <g transform="translate(88,48) scale(1.3733333333333)"><circle cx="3" cy="3" r="3"/></g>
    <g transform="translate(96,48) scale(1.3733333333333)"><circle cx="3" cy="3" r="3"/></g>
    <g transform="translate(128,48) scale(1.3733333333333)"><circle cx="3" cy="3" r="3"/></g>
    <g transform="translate(136,48) scale(1.3733333333333)"><circle cx="3" cy="3" r="3"/></g>
    <g transform="translate(152,48) scale(1.3733333333333)"><circle cx="3" cy="3" r="3"/></g>
    <g transform="translate(168,48) scale(1.3733333333333)"><circle cx="3" cy="3" r="3"/></g>
    <g transform="translate(176,48) scale(1.3733333333333)"><circle cx="3" cy="3" r="3"/></g>
    <g transform="translate(184,48) scale(1.3733333333333)"><circle cx="3" cy="3" r="3"/></g>
    <g transform="translate(192,48) scale(1.3733333333333)"><circle cx="3" cy="3" r="3"/></g>
    <g transform="translate(208,48) scale(1.3733333333333)"><circle cx="3" cy="3" r="3"/></g>
    <g transform="translate(80,56) scale(1.3733333333333)"><circle cx="3" cy="3" r="3"/></g>
    <g transform="translate(88,56) scale(1.3733333333333)"><circle cx="3" cy="3" r="3"/></g>
    <g transform="translate(96,56) scale(1.3733333333333)"><circle cx="3" cy="3" r="3"/></g>
    <g transform="translate(104,56) scale(1.3733333333333)"><circle cx="3" cy="3" r="3"/></g>
    <g transform="translate(112,56) scale(1.3733333333333)"><circle cx="3" cy="3" r="3"/></g>
    <g transform="translate(168,56) scale(1.3733333333333)"><circle cx="3" cy="3" r="3"/></g>
    <g transform="translate(176,56) scale(1.3733333333333)"><circle cx="3" cy="3" r="3"/></g>
    <g transform="translate(80,64) scale(1.3733333333333)"><circle cx="3" cy="3" r="3"/></g>
    <g transform="translate(96,64) scale(1.3733333333333)"><circle cx="3" cy="3" r="3"/></g>
    <g transform="translate(112,64) scale(1.3733333333333)"><circle cx="3" cy="3" r="3"/></g>
    <g transform="translate(128,64) scale(1.3733333333333)"><circle cx="3" cy="3" r="3"/></g>
    <g transform="translate(144,64) scale(1.3733333333333)"><circle cx="3" cy="3" r="3"/></g>
    <g transform="translate(160,64) scale(1.3733333333333)"><circle cx="3" cy="3" r="3"/></g>
    <g transform="translate(176,64) scale(1.3733333333333)"><circle cx="3" cy="3" r="3"/></g>
    <g transform="translate(192,64) scale(1.3733333333333)"><circle cx="3" cy="3" r="3"/></g>
    <g transform="translate(208,64) scale(1.3733333333333)"><circle cx="3" cy="3" r="3"/></g>
    <g transform="translate(80,72) scale(1.3733333333333)"><circle cx="3" cy="3" r="3"/></g>
    <g transform="translate(88,72) scale(1.3733333333333)"><circle cx="3" cy="3" r="3"/></g>
    <g transform="translate(96,72) scale(1.3733333333333)"><circle cx="3" cy="3" r="3"/></g>
    <g transform="translate(128,72) scale(1.3733333333333)"><circle cx="3" cy="3" r="3"/></g>
    <g transform="translate(160,72) scale(1.3733333333333)"><circle cx="3" cy="3" r="3"/></g>
    <g transform="translate(176,72) scale(1.3733333333333)"><circle cx="3" cy="3" r="3"/></g>
    <g transform="translate(184,72) scale(1.3733333333333)"><circle cx="3" cy="3" r="3"/></g>
    <g transform="translate(208,72) scale(1.3733333333333)"><circle cx="3" cy="3" r="3"/></g>
    <g transform="translate(32,80) scale(1.3733333333333)"><circle cx="3" cy="3" r="3"/></g>
    <g transform="translate(40,80) scale(1.3733333333333)"><circle cx="3" cy="3" r="3"/></g>
    <g transform="translate(48,80) scale(1.3733333333333)"><circle cx="3" cy="3" r="3"/></g>
    <g transform="translate(64,80) scale(1.3733333333333)"><circle cx="3" cy="3" r="3"/></g>
    <g transform="translate(80,80) scale(1.3733333333333)"><circle cx="3" cy="3" r="3"/></g>
    <g transform="translate(88,80) scale(1.3733333333333)"><circle cx="3" cy="3" r="3"/></g>
    <g transform="translate(96,80) scale(1.3733333333333)"><circle cx="3" cy="3" r="3"/></g>
    <g transform="translate(104,80) scale(1.3733333333333)"><circle cx="3" cy="3" r="3"/></g>
    <g transform="translate(144,80) scale(1.3733333333333)"><circle cx="3" cy="3" r="3"/></g>
    <g transform="translate(168,80) scale(1.3733333333333)"><circle cx="3" cy="3" r="3"/></g>
    <g transform="translate(208,80) scale(1.3733333333333)"><circle cx="3" cy="3" r="3"/></g>
    <g transform="translate(216,80) scale(1.3733333333333)"><circle cx="3" cy="3" r="3"/></g>
    <g transform="translate(224,80) scale(1.3733333333333)"><circle cx="3" cy="3" r="3"/></g>
    <g transform="translate(232,80) scale(1.3733333333333)"><circle cx="3" cy="3" r="3"/></g>
    <g transform="translate(256,80) scale(1.3733333333333)"><circle cx="3" cy="3" r="3"/></g>
    <g transform="translate(264,80) scale(1.3733333333333)"><circle cx="3" cy="3" r="3"/></g>
    <g transform="translate(272,80) scale(1.3733333333333)"><circle cx="3" cy="3" r="3"/></g>
    <g transform="translate(32,88) scale(1.3733333333333)"><circle cx="3" cy="3" r="3"/></g>
    <g transform="translate(56,88) scale(1.3733333333333)"><circle cx="3" cy="3" r="3"/></g>
    <g transform="translate(88,88) scale(1.3733333333333)"><circle cx="3" cy="3" r="3"/></g>
    <g transform="translate(152,88) scale(1.3733333333333)"><circle cx="3" cy="3" r="3"/></g>
    <g transform="translate(168,88) scale(1.3733333333333)"><circle cx="3" cy="3" r="3"/></g>
    <g transform="translate(200,88) scale(1.3733333333333)"><circle cx="3" cy="3" r="3"/></g>
    <g transform="translate(216,88) scale(1.3733333333333)"><circle cx="3" cy="3" r="3"/></g>
    <g transform="translate(224,88) scale(1.3733333333333)"><circle cx="3" cy="3" r="3"/></g>
    <g transform="translate(248,88) scale(1.3733333333333)"><circle cx="3" cy="3" r="3"/></g>
    <g transform="translate(272,88) scale(1.3733333333333)"><circle cx="3" cy="3" r="3"/></g>
    <g transform="translate(16,96) scale(1.3733333333333)"><circle cx="3" cy="3" r="3"/></g>
    <g transform="translate(24,96) scale(1.3733333333333)"><circle cx="3" cy="3" r="3"/></g>
    <g transform="translate(48,96) scale(1.3733333333333)"><circle cx="3" cy="3" r="3"/></g>
    <g transform="translate(56,96) scale(1.3733333333333)"><circle cx="3" cy="3" r="3"/></g>
    <g transform="translate(64,96) scale(1.3733333333333)"><circle cx="3" cy="3" r="3"/></g>
    <g transform="translate(72,96) scale(1.3733333333333)"><circle cx="3" cy="3" r="3"/></g>
    <g transform="translate(88,96) scale(1.3733333333333)"><circle cx="3" cy="3" r="3"/></g>
    <g transform="translate(120,96) scale(1.3733333333333)"><circle cx="3" cy="3" r="3"/></g>
    <g transform="translate(136,96) scale(1.3733333333333)"><circle cx="3" cy="3" r="3"/></g>
    <g transform="translate(152,96) scale(1.3733333333333)"><circle cx="3" cy="3" r="3"/></g>
    <g transform="translate(192,96) scale(1.3733333333333)"><circle cx="3" cy="3" r="3"/></g>
    <g transform="translate(216,96) scale(1.3733333333333)"><circle cx="3" cy="3" r="3"/></g>
    <g transform="translate(224,96) scale(1.3733333333333)"><circle cx="3" cy="3" r="3"/></g>
    <g transform="translate(232,96) scale(1.3733333333333)"><circle cx="3" cy="3" r="3"/></g>
    <g transform="translate(264,96) scale(1.3733333333333)"><circle cx="3" cy="3" r="3"/></g>
    <g transform="translate(72,104) scale(1.3733333333333)"><circle cx="3" cy="3" r="3"/></g>
    <g transform="translate(88,104) scale(1.3733333333333)"><circle cx="3" cy="3" r="3"/></g>
    <g transform="translate(96,104) scale(1.3733333333333)"><circle cx="3" cy="3" r="3"/></g>
    <g transform="translate(128,104) scale(1.3733333333333)"><circle cx="3" cy="3" r="3"/></g>
    <g transform="translate(144,104) scale(1.3733333333333)"><circle cx="3" cy="3" r="3"/></g>
    <g transform="translate(152,104) scale(1.3733333333333)"><circle cx="3" cy="3" r="3"/></g>
    <g transform="translate(168,104) scale(1.3733333333333)"><circle cx="3" cy="3" r="3"/></g>
    <g transform="translate(216,104) scale(1.3733333333333)"><circle cx="3" cy="3" r="3"/></g>
    <g transform="translate(224,104) scale(1.3733333333333)"><circle cx="3" cy="3" r="3"/></g>
    <g transform="translate(248,104) scale(1.3733333333333)"><circle cx="3" cy="3" r="3"/></g>
    <g transform="translate(256,104) scale(1.3733333333333)"><circle cx="3" cy="3" r="3"/></g>
    <g transform="translate(272,104) scale(1.3733333333333)"><circle cx="3" cy="3" r="3"/></g>
    <g transform="translate(16,112) scale(1.3733333333333)"><circle cx="3" cy="3" r="3"/></g>
    <g transform="translate(40,112) scale(1.3733333333333)"><circle cx="3" cy="3" r="3"/></g>
    <g transform="translate(48,112) scale(1.3733333333333)"><circle cx="3" cy="3" r="3"/></g>
    <g transform="translate(64,112) scale(1.3733333333333)"><circle cx="3" cy="3" r="3"/></g>
    <g transform="translate(88,112) scale(1.3733333333333)"><circle cx="3" cy="3" r="3"/></g>
    <g transform="translate(104,112) scale(1.3733333333333)"><circle cx="3" cy="3" r="3"/></g>
    <g transform="translate(112,112) scale(1.3733333333333)"><circle cx="3" cy="3" r="3"/></g>
    <g transform="translate(120,112) scale(1.3733333333333)"><circle cx="3" cy="3" r="3"/></g>
    <g transform="translate(128,112) scale(1.3733333333333)"><circle cx="3" cy="3" r="3"/></g>
    <g transform="translate(136,112) scale(1.3733333333333)"><circle cx="3" cy="3" r="3"/></g>
    <g transform="translate(152,112) scale(1.3733333333333)"><circle cx="3" cy="3" r="3"/></g>
    <g transform="translate(160,112) scale(1.3733333333333)"><circle cx="3" cy="3" r="3"/></g>
    <g transform="translate(168,112) scale(1.3733333333333)"><circle cx="3" cy="3" r="3"/></g>
    <g transform="translate(184,112) scale(1.3733333333333)"><circle cx="3" cy="3" r="3"/></g>
    <g transform="translate(192,112) scale(1.3733333333333)"><circle cx="3" cy="3" r="3"/></g>
    <g transform="translate(232,112) scale(1.3733333333333)"><circle cx="3" cy="3" r="3"/></g>
    <g transform="translate(272,112) scale(1.3733333333333)"><circle cx="3" cy="3" r="3"/></g>
    <g transform="translate(16,120) scale(1.3733333333333)"><circle cx="3" cy="3" r="3"/></g>
    <g transform="translate(32,120) scale(1.3733333333333)"><circle cx="3" cy="3" r="3"/></g>
    <g transform="translate(48,120) scale(1.3733333333333)"><circle cx="3" cy="3" r="3"/></g>
    <g transform="translate(80,120) scale(1.3733333333333)"><circle cx="3" cy="3" r="3"/></g>
    <g transform="translate(96,120) scale(1.3733333333333)"><circle cx="3" cy="3" r="3"/></g>
    <g transform="translate(112,120) scale(1.3733333333333)"><circle cx="3" cy="3" r="3"/></g>
    <g transform="translate(120,120) scale(1.3733333333333)"><circle cx="3" cy="3" r="3"/></g>
    <g transform="translate(136,120) scale(1.3733333333333)"><circle cx="3" cy="3" r="3"/></g>
    <g transform="translate(168,120) scale(1.3733333333333)"><circle cx="3" cy="3" r="3"/></g>
    <g transform="translate(200,120) scale(1.3733333333333)"><circle cx="3" cy="3" r="3"/></g>
    <g transform="translate(224,120) scale(1.3733333333333)"><circle cx="3" cy="3" r="3"/></g>
    <g transform="translate(240,120) scale(1.3733333333333)"><circle cx="3" cy="3" r="3"/></g>
    <g transform="translate(248,120) scale(1.3733333333333)"><circle cx="3" cy="3" r="3"/></g>
    <g transform="translate(272,120) scale(1.3733333333333)"><circle cx="3" cy="3" r="3"/></g>
    <g transform="translate(16,128) scale(1.3733333333333)"><circle cx="3" cy="3" r="3"/></g>
    <g transform="translate(24,128) scale(1.3733333333333)"><circle cx="3" cy="3" r="3"/></g>
    <g transform="translate(40,128) scale(1.3733333333333)"><circle cx="3" cy="3" r="3"/></g>
    <g transform="translate(48,128) scale(1.3733333333333)"><circle cx="3" cy="3" r="3"/></g>
    <g transform="translate(64,128) scale(1.3733333333333)"><circle cx="3" cy="3" r="3"/></g>
    <g transform="translate(88,128) scale(1.3733333333333)"><circle cx="3" cy="3" r="3"/></g>
    <g transform="translate(96,128) scale(1.3733333333333)"><circle cx="3" cy="3" r="3"/></g>
    <g transform="translate(104,128) scale(1.3733333333333)"><circle cx="3" cy="3" r="3"/></g>
    <g transform="translate(176,128) scale(1.3733333333333)"><circle cx="3" cy="3" r="3"/></g>
    <g transform="translate(192,128) scale(1.3733333333333)"><circle cx="3" cy="3" r="3"/></g>
    <g transform="translate(208,128) scale(1.3733333333333)"><circle cx="3" cy="3" r="3"/></g>
    <g transform="translate(216,128) scale(1.3733333333333)"><circle cx="3" cy="3" r="3"/></g>
    <g transform="translate(232,128) scale(1.3733333333333)"><circle cx="3" cy="3" r="3"/></g>
    <g transform="translate(240,128) scale(1.3733333333333)"><circle cx="3" cy="3" r="3"/></g>
    <g transform="translate(248,128) scale(1.3733333333333)"><circle cx="3" cy="3" r="3"/></g>
    <g transform="translate(264,128) scale(1.3733333333333)"><circle cx="3" cy="3" r="3"/></g>
    <g transform="translate(48,136) scale(1.3733333333333)"><circle cx="3" cy="3" r="3"/></g>
    <g transform="translate(56,136) scale(1.3733333333333)"><circle cx="3" cy="3" r="3"/></g>
    <g transform="translate(80,136) scale(1.3733333333333)"><circle cx="3" cy="3" r="3"/></g>
    <g transform="translate(96,136) scale(1.3733333333333)"><circle cx="3" cy="3" r="3"/></g>
    <g transform="translate(144,136) scale(1.3733333333333)"><circle cx="3" cy="3" r="3"/></g>
    <g transform="translate(184,136) scale(1.3733333333333)"><circle cx="3" cy="3" r="3"/></g>
    <g transform="translate(192,136) scale(1.3733333333333)"><circle cx="3" cy="3" r="3"/></g>
    <g transform="translate(208,136) scale(1.3733333333333)"><circle cx="3" cy="3" r="3"/></g>
    <g transform="translate(240,136) scale(1.3733333333333)"><circle cx="3" cy="3" r="3"/></g>
    <g transform="translate(256,136) scale(1.3733333333333)"><circle cx="3" cy="3" r="3"/></g>
    <g transform="translate(16,144) scale(1.3733333333333)"><circle cx="3" cy="3" r="3"/></g>
    <g transform="translate(32,144) scale(1.3733333333333)"><circle cx="3" cy="3" r="3"/></g>
    <g transform="translate(48,144) scale(1.3733333333333)"><circle cx="3" cy="3" r="3"/></g>
    <g transform="translate(64,144) scale(1.3733333333333)"><circle cx="3" cy="3" r="3"/></g>
    <g transform="translate(72,144) scale(1.3733333333333)"><circle cx="3" cy="3" r="3"/></g>
    <g transform="translate(88,144) scale(1.3733333333333)"><circle cx="3" cy="3" r="3"/></g>
    <g transform="translate(104,144) scale(1.3733333333333)"><circle cx="3" cy="3" r="3"/></g>
    <g transform="translate(128,144) scale(1.3733333333333)"><circle cx="3" cy="3" r="3"/></g>
    <g transform="translate(136,144) scale(1.3733333333333)"><circle cx="3" cy="3" r="3"/></g>
    <g transform="translate(152,144) scale(1.3733333333333)"><circle cx="3" cy="3" r="3"/></g>
    <g transform="translate(168,144) scale(1.3733333333333)"><circle cx="3" cy="3" r="3"/></g>
    <g transform="translate(216,144) scale(1.3733333333333)"><circle cx="3" cy="3" r="3"/></g>
    <g transform="translate(240,144) scale(1.3733333333333)"><circle cx="3" cy="3" r="3"/></g>
    <g transform="translate(264,144) scale(1.3733333333333)"><circle cx="3" cy="3" r="3"/></g>
    <g transform="translate(272,144) scale(1.3733333333333)"><circle cx="3" cy="3" r="3"/></g>
    <g transform="translate(80,152) scale(1.3733333333333)"><circle cx="3" cy="3" r="3"/></g>
    <g transform="translate(104,152) scale(1.3733333333333)"><circle cx="3" cy="3" r="3"/></g>
    <g transform="translate(112,152) scale(1.3733333333333)"><circle cx="3" cy="3" r="3"/></g>
    <g transform="translate(168,152) scale(1.3733333333333)"><circle cx="3" cy="3" r="3"/></g>
    <g transform="translate(176,152) scale(1.3733333333333)"><circle cx="3" cy="3" r="3"/></g>
    <g transform="translate(184,152) scale(1.3733333333333)"><circle cx="3" cy="3" r="3"/></g>
    <g transform="translate(200,152) scale(1.3733333333333)"><circle cx="3" cy="3" r="3"/></g>
    <g transform="translate(208,152) scale(1.3733333333333)"><circle cx="3" cy="3" r="3"/></g>
    <g transform="translate(224,152) scale(1.3733333333333)"><circle cx="3" cy="3" r="3"/></g>
    <g transform="translate(272,152) scale(1.3733333333333)"><circle cx="3" cy="3" r="3"/></g>
    <g transform="translate(32,160) scale(1.3733333333333)"><circle cx="3" cy="3" r="3"/></g>
    <g transform="translate(48,160) scale(1.3733333333333)"><circle cx="3" cy="3" r="3"/></g>
    <g transform="translate(56,160) scale(1.3733333333333)"><circle cx="3" cy="3" r="3"/></g>
    <g transform="translate(64,160) scale(1.3733333333333)"><circle cx="3" cy="3" r="3"/></g>
    <g transform="translate(72,160) scale(1.3733333333333)"><circle cx="3" cy="3" r="3"/></g>
    <g transform="translate(88,160) scale(1.3733333333333)"><circle cx="3" cy="3" r="3"/></g>
    <g transform="translate(128,160) scale(1.3733333333333)"><circle cx="3" cy="3" r="3"/></g>
    <g transform="translate(152,160) scale(1.3733333333333)"><circle cx="3" cy="3" r="3"/></g>
    <g transform="translate(168,160) scale(1.3733333333333)"><circle cx="3" cy="3" r="3"/></g>
    <g transform="translate(176,160) scale(1.3733333333333)"><circle cx="3" cy="3" r="3"/></g>
    <g transform="translate(184,160) scale(1.3733333333333)"><circle cx="3" cy="3" r="3"/></g>
    <g transform="translate(256,160) scale(1.3733333333333)"><circle cx="3" cy="3" r="3"/></g>
    <g transform="translate(264,160) scale(1.3733333333333)"><circle cx="3" cy="3" r="3"/></g>
    <g transform="translate(32,168) scale(1.3733333333333)"><circle cx="3" cy="3" r="3"/></g>
    <g transform="translate(40,168) scale(1.3733333333333)"><circle cx="3" cy="3" r="3"/></g>
    <g transform="translate(72,168) scale(1.3733333333333)"><circle cx="3" cy="3" r="3"/></g>
    <g transform="translate(104,168) scale(1.3733333333333)"><circle cx="3" cy="3" r="3"/></g>
    <g transform="translate(112,168) scale(1.3733333333333)"><circle cx="3" cy="3" r="3"/></g>
    <g transform="translate(120,168) scale(1.3733333333333)"><circle cx="3" cy="3" r="3"/></g>
    <g transform="translate(152,168) scale(1.3733333333333)"><circle cx="3" cy="3" r="3"/></g>
    <g transform="translate(160,168) scale(1.3733333333333)"><circle cx="3" cy="3" r="3"/></g>
    <g transform="translate(184,168) scale(1.3733333333333)"><circle cx="3" cy="3" r="3"/></g>
    <g transform="translate(200,168) scale(1.3733333333333)"><circle cx="3" cy="3" r="3"/></g>
    <g transform="translate(208,168) scale(1.3733333333333)"><circle cx="3" cy="3" r="3"/></g>
    <g transform="translate(216,168) scale(1.3733333333333)"><circle cx="3" cy="3" r="3"/></g>
    <g transform="translate(232,168) scale(1.3733333333333)"><circle cx="3" cy="3" r="3"/></g>
    <g transform="translate(240,168) scale(1.3733333333333)"><circle cx="3" cy="3" r="3"/></g>
    <g transform="translate(248,168) scale(1.3733333333333)"><circle cx="3" cy="3" r="3"/></g>
    <g transform="translate(256,168) scale(1.3733333333333)"><circle cx="3" cy="3" r="3"/></g>
    <g transform="translate(264,168) scale(1.3733333333333)"><circle cx="3" cy="3" r="3"/></g>
    <g transform="translate(24,176) scale(1.3733333333333)"><circle cx="3" cy="3" r="3"/></g>
    <g transform="translate(64,176) scale(1.3733333333333)"><circle cx="3" cy="3" r="3"/></g>
    <g transform="translate(96,176) scale(1.3733333333333)"><circle cx="3" cy="3" r="3"/></g>
    <g transform="translate(104,176) scale(1.3733333333333)"><circle cx="3" cy="3" r="3"/></g>
    <g transform="translate(112,176) scale(1.3733333333333)"><circle cx="3" cy="3" r="3"/></g>
    <g transform="translate(120,176) scale(1.3733333333333)"><circle cx="3" cy="3" r="3"/></g>
    <g transform="translate(128,176) scale(1.3733333333333)"><circle cx="3" cy="3" r="3"/></g>
    <g transform="translate(152,176) scale(1.3733333333333)"><circle cx="3" cy="3" r="3"/></g>
    <g transform="translate(168,176) scale(1.3733333333333)"><circle cx="3" cy="3" r="3"/></g>
    <g transform="translate(208,176) scale(1.3733333333333)"><circle cx="3" cy="3" r="3"/></g>
    <g transform="translate(232,176) scale(1.3733333333333)"><circle cx="3" cy="3" r="3"/></g>
    <g transform="translate(240,176) scale(1.3733333333333)"><circle cx="3" cy="3" r="3"/></g>
    <g transform="translate(248,176) scale(1.3733333333333)"><circle cx="3" cy="3" r="3"/></g>
    <g transform="translate(272,176) scale(1.3733333333333)"><circle cx="3" cy="3" r="3"/></g>
    <g transform="translate(16,184) scale(1.3733333333333)"><circle cx="3" cy="3" r="3"/></g>
    <g transform="translate(32,184) scale(1.3733333333333)"><circle cx="3" cy="3" r="3"/></g>
    <g transform="translate(40,184) scale(1.3733333333333)"><circle cx="3" cy="3" r="3"/></g>
    <g transform="translate(48,184) scale(1.3733333333333)"><circle cx="3" cy="3" r="3"/></g>
    <g transform="translate(56,184) scale(1.3733333333333)"><circle cx="3" cy="3" r="3"/></g>
    <g transform="translate(72,184) scale(1.3733333333333)"><circle cx="3" cy="3" r="3"/></g>
    <g transform="translate(88,184) scale(1.3733333333333)"><circle cx="3" cy="3" r="3"/></g>
    <g transform="translate(96,184) scale(1.3733333333333)"><circle cx="3" cy="3" r="3"/></g>
    <g transform="translate(104,184) scale(1.3733333333333)"><circle cx="3" cy="3" r="3"/></g>
    <g transform="translate(112,184) scale(1.3733333333333)"><circle cx="3" cy="3" r="3"/></g>
    <g transform="translate(152,184) scale(1.3733333333333)"><circle cx="3" cy="3" r="3"/></g>
    <g transform="translate(176,184) scale(1.3733333333333)"><circle cx="3" cy="3" r="3"/></g>
    <g transform="translate(192,184) scale(1.3733333333333)"><circle cx="3" cy="3" r="3"/></g>
    <g transform="translate(216,184) scale(1.3733333333333)"><circle cx="3" cy="3" r="3"/></g>
    <g transform="translate(248,184) scale(1.3733333333333)"><circle cx="3" cy="3" r="3"/></g>
    <g transform="translate(256,184) scale(1.3733333333333)"><circle cx="3" cy="3" r="3"/></g>
    <g transform="translate(272,184) scale(1.3733333333333)"><circle cx="3" cy="3" r="3"/></g>
    <g transform="translate(16,192) scale(1.3733333333333)"><circle cx="3" cy="3" r="3"/></g>
    <g transform="translate(32,192) scale(1.3733333333333)"><circle cx="3" cy="3" r="3"/></g>
    <g transform="translate(64,192) scale(1.3733333333333)"><circle cx="3" cy="3" r="3"/></g>
    <g transform="translate(72,192) scale(1.3733333333333)"><circle cx="3" cy="3" r="3"/></g>
    <g transform="translate(88,192) scale(1.3733333333333)"><circle cx="3" cy="3" r="3"/></g>
    <g transform="translate(96,192) scale(1.3733333333333)"><circle cx="3" cy="3" r="3"/></g>
    <g transform="translate(104,192) scale(1.3733333333333)"><circle cx="3" cy="3" r="3"/></g>
    <g transform="translate(112,192) scale(1.3733333333333)"><circle cx="3" cy="3" r="3"/></g>
    <g transform="translate(160,192) scale(1.3733333333333)"><circle cx="3" cy="3" r="3"/></g>
    <g transform="translate(192,192) scale(1.3733333333333)"><circle cx="3" cy="3" r="3"/></g>
    <g transform="translate(200,192) scale(1.3733333333333)"><circle cx="3" cy="3" r="3"/></g>
    <g transform="translate(208,192) scale(1.3733333333333)"><circle cx="3" cy="3" r="3"/></g>
    <g transform="translate(232,192) scale(1.3733333333333)"><circle cx="3" cy="3" r="3"/></g>
    <g transform="translate(240,192) scale(1.3733333333333)"><circle cx="3" cy="3" r="3"/></g>
    <g transform="translate(248,192) scale(1.3733333333333)"><circle cx="3" cy="3" r="3"/></g>
    <g transform="translate(256,192) scale(1.3733333333333)"><circle cx="3" cy="3" r="3"/></g>
    <g transform="translate(16,200) scale(1.3733333333333)"><circle cx="3" cy="3" r="3"/></g>
    <g transform="translate(32,200) scale(1.3733333333333)"><circle cx="3" cy="3" r="3"/></g>
    <g transform="translate(40,200) scale(1.3733333333333)"><circle cx="3" cy="3" r="3"/></g>
    <g transform="translate(72,200) scale(1.3733333333333)"><circle cx="3" cy="3" r="3"/></g>
    <g transform="translate(96,200) scale(1.3733333333333)"><circle cx="3" cy="3" r="3"/></g>
    <g transform="translate(104,200) scale(1.3733333333333)"><circle cx="3" cy="3" r="3"/></g>
    <g transform="translate(112,200) scale(1.3733333333333)"><circle cx="3" cy="3" r="3"/></g>
    <g transform="translate(160,200) scale(1.3733333333333)"><circle cx="3" cy="3" r="3"/></g>
    <g transform="translate(168,200) scale(1.3733333333333)"><circle cx="3" cy="3" r="3"/></g>
    <g transform="translate(176,200) scale(1.3733333333333)"><circle cx="3" cy="3" r="3"/></g>
    <g transform="translate(184,200) scale(1.3733333333333)"><circle cx="3" cy="3" r="3"/></g>
    <g transform="translate(200,200) scale(1.3733333333333)"><circle cx="3" cy="3" r="3"/></g>
    <g transform="translate(232,200) scale(1.3733333333333)"><circle cx="3" cy="3" r="3"/></g>
    <g transform="translate(248,200) scale(1.3733333333333)"><circle cx="3" cy="3" r="3"/></g>
    <g transform="translate(256,200) scale(1.3733333333333)"><circle cx="3" cy="3" r="3"/></g>
    <g transform="translate(16,208) scale(1.3733333333333)"><circle cx="3" cy="3" r="3"/></g>
    <g transform="translate(32,208) scale(1.3733333333333)"><circle cx="3" cy="3" r="3"/></g>
    <g transform="translate(40,208) scale(1.3733333333333)"><circle cx="3" cy="3" r="3"/></g>
    <g transform="translate(64,208) scale(1.3733333333333)"><circle cx="3" cy="3" r="3"/></g>
    <g transform="translate(104,208) scale(1.3733333333333)"><circle cx="3" cy="3" r="3"/></g>
    <g transform="translate(112,208) scale(1.3733333333333)"><circle cx="3" cy="3" r="3"/></g>
    <g transform="translate(128,208) scale(1.3733333333333)"><circle cx="3" cy="3" r="3"/></g>
    <g transform="translate(136,208) scale(1.3733333333333)"><circle cx="3" cy="3" r="3"/></g>
    <g transform="translate(160,208) scale(1.3733333333333)"><circle cx="3" cy="3" r="3"/></g>
    <g transform="translate(168,208) scale(1.3733333333333)"><circle cx="3" cy="3" r="3"/></g>
    <g transform="translate(176,208) scale(1.3733333333333)"><circle cx="3" cy="3" r="3"/></g>
    <g transform="translate(192,208) scale(1.3733333333333)"><circle cx="3" cy="3" r="3"/></g>
    <g transform="translate(200,208) scale(1.3733333333333)"><circle cx="3" cy="3" r="3"/></g>
    <g transform="translate(208,208) scale(1.3733333333333)"><circle cx="3" cy="3" r="3"/></g>
    <g transform="translate(216,208) scale(1.3733333333333)"><circle cx="3" cy="3" r="3"/></g>
    <g transform="translate(224,208) scale(1.3733333333333)"><circle cx="3" cy="3" r="3"/></g>
    <g transform="translate(232,208) scale(1.3733333333333)"><circle cx="3" cy="3" r="3"/></g>
    <g transform="translate(240,208) scale(1.3733333333333)"><circle cx="3" cy="3" r="3"/></g>
    <g transform="translate(248,208) scale(1.3733333333333)"><circle cx="3" cy="3" r="3"/></g>
    <g transform="translate(80,216) scale(1.3733333333333)"><circle cx="3" cy="3" r="3"/></g>
    <g transform="translate(88,216) scale(1.3733333333333)"><circle cx="3" cy="3" r="3"/></g>
    <g transform="translate(96,216) scale(1.3733333333333)"><circle cx="3" cy="3" r="3"/></g>
    <g transform="translate(104,216) scale(1.3733333333333)"><circle cx="3" cy="3" r="3"/></g>
    <g transform="translate(112,216) scale(1.3733333333333)"><circle cx="3" cy="3" r="3"/></g>
    <g transform="translate(120,216) scale(1.3733333333333)"><circle cx="3" cy="3" r="3"/></g>
    <g transform="translate(128,216) scale(1.3733333333333)"><circle cx="3" cy="3" r="3"/></g>
    <g transform="translate(136,216) scale(1.3733333333333)"><circle cx="3" cy="3" r="3"/></g>
    <g transform="translate(176,216) scale(1.3733333333333)"><circle cx="3" cy="3" r="3"/></g>
    <g transform="translate(184,216) scale(1.3733333333333)"><circle cx="3" cy="3" r="3"/></g>
    <g transform="translate(200,216) scale(1.3733333333333)"><circle cx="3" cy="3" r="3"/></g>
    <g transform="translate(208,216) scale(1.3733333333333)"><circle cx="3" cy="3" r="3"/></g>
    <g transform="translate(240,216) scale(1.3733333333333)"><circle cx="3" cy="3" r="3"/></g>
    <g transform="translate(248,216) scale(1.3733333333333)"><circle cx="3" cy="3" r="3"/></g>
    <g transform="translate(256,216) scale(1.3733333333333)"><circle cx="3" cy="3" r="3"/></g>
    <g transform="translate(264,216) scale(1.3733333333333)"><circle cx="3" cy="3" r="3"/></g>
    <g transform="translate(272,216) scale(1.3733333333333)"><circle cx="3" cy="3" r="3"/></g>
    <g transform="translate(88,224) scale(1.3733333333333)"><circle cx="3" cy="3" r="3"/></g>
    <g transform="translate(120,224) scale(1.3733333333333)"><circle cx="3" cy="3" r="3"/></g>
    <g transform="translate(128,224) scale(1.3733333333333)"><circle cx="3" cy="3" r="3"/></g>
    <g transform="translate(136,224) scale(1.3733333333333)"><circle cx="3" cy="3" r="3"/></g>
    <g transform="translate(144,224) scale(1.3733333333333)"><circle cx="3" cy="3" r="3"/></g>
    <g transform="translate(168,224) scale(1.3733333333333)"><circle cx="3" cy="3" r="3"/></g>
    <g transform="translate(176,224) scale(1.3733333333333)"><circle cx="3" cy="3" r="3"/></g>
    <g transform="translate(184,224) scale(1.3733333333333)"><circle cx="3" cy="3" r="3"/></g>
    <g transform="translate(200,224) scale(1.3733333333333)"><circle cx="3" cy="3" r="3"/></g>
    <g transform="translate(208,224) scale(1.3733333333333)"><circle cx="3" cy="3" r="3"/></g>
    <g transform="translate(224,224) scale(1.3733333333333)"><circle cx="3" cy="3" r="3"/></g>
    <g transform="translate(240,224) scale(1.3733333333333)"><circle cx="3" cy="3" r="3"/></g>
    <g transform="translate(248,224) scale(1.3733333333333)"><circle cx="3" cy="3" r="3"/></g>
    <g transform="translate(264,224) scale(1.3733333333333)"><circle cx="3" cy="3" r="3"/></g>
    <g transform="translate(88,232) scale(1.3733333333333)"><circle cx="3" cy="3" r="3"/></g>
    <g transform="translate(112,232) scale(1.3733333333333)"><circle cx="3" cy="3" r="3"/></g>
    <g transform="translate(160,232) scale(1.3733333333333)"><circle cx="3" cy="3" r="3"/></g>
    <g transform="translate(176,232) scale(1.3733333333333)"><circle cx="3" cy="3" r="3"/></g>
    <g transform="translate(184,232) scale(1.3733333333333)"><circle cx="3" cy="3" r="3"/></g>
    <g transform="translate(192,232) scale(1.3733333333333)"><circle cx="3" cy="3" r="3"/></g>
    <g transform="translate(200,232) scale(1.3733333333333)"><circle cx="3" cy="3" r="3"/></g>
    <g transform="translate(208,232) scale(1.3733333333333)"><circle cx="3" cy="3" r="3"/></g>
    <g transform="translate(240,232) scale(1.3733333333333)"><circle cx="3" cy="3" r="3"/></g>
    <g transform="translate(248,232) scale(1.3733333333333)"><circle cx="3" cy="3" r="3"/></g>
    <g transform="translate(256,232) scale(1.3733333333333)"><circle cx="3" cy="3" r="3"/></g>
    <g transform="translate(264,232) scale(1.3733333333333)"><circle cx="3" cy="3" r="3"/></g>
    <g transform="translate(272,232) scale(1.3733333333333)"><circle cx="3" cy="3" r="3"/></g>
    <g transform="translate(80,240) scale(1.3733333333333)"><circle cx="3" cy="3" r="3"/></g>
    <g transform="translate(88,240) scale(1.3733333333333)"><circle cx="3" cy="3" r="3"/></g>
    <g transform="translate(120,240) scale(1.3733333333333)"><circle cx="3" cy="3" r="3"/></g>
    <g transform="translate(128,240) scale(1.3733333333333)"><circle cx="3" cy="3" r="3"/></g>
    <g transform="translate(136,240) scale(1.3733333333333)"><circle cx="3" cy="3" r="3"/></g>
    <g transform="translate(160,240) scale(1.3733333333333)"><circle cx="3" cy="3" r="3"/></g>
    <g transform="translate(168,240) scale(1.3733333333333)"><circle cx="3" cy="3" r="3"/></g>
    <g transform="translate(176,240) scale(1.3733333333333)"><circle cx="3" cy="3" r="3"/></g>
    <g transform="translate(184,240) scale(1.3733333333333)"><circle cx="3" cy="3" r="3"/></g>
    <g transform="translate(208,240) scale(1.3733333333333)"><circle cx="3" cy="3" r="3"/></g>
    <g transform="translate(216,240) scale(1.3733333333333)"><circle cx="3" cy="3" r="3"/></g>
    <g transform="translate(224,240) scale(1.3733333333333)"><circle cx="3" cy="3" r="3"/></g>
    <g transform="translate(232,240) scale(1.3733333333333)"><circle cx="3" cy="3" r="3"/></g>
    <g transform="translate(240,240) scale(1.3733333333333)"><circle cx="3" cy="3" r="3"/></g>
    <g transform="translate(264,240) scale(1.3733333333333)"><circle cx="3" cy="3" r="3"/></g>
    <g transform="translate(272,240) scale(1.3733333333333)"><circle cx="3" cy="3" r="3"/></g>
    <g transform="translate(80,248) scale(1.3733333333333)"><circle cx="3" cy="3" r="3"/></g>
    <g transform="translate(88,248) scale(1.3733333333333)"><circle cx="3" cy="3" r="3"/></g>
    <g transform="translate(112,248) scale(1.3733333333333)"><circle cx="3" cy="3" r="3"/></g>
    <g transform="translate(120,248) scale(1.3733333333333)"><circle cx="3" cy="3" r="3"/></g>
    <g transform="translate(144,248) scale(1.3733333333333)"><circle cx="3" cy="3" r="3"/></g>
    <g transform="translate(160,248) scale(1.3733333333333)"><circle cx="3" cy="3" r="3"/></g>
    <g transform="translate(168,248) scale(1.3733333333333)"><circle cx="3" cy="3" r="3"/></g>
    <g transform="translate(176,248) scale(1.3733333333333)"><circle cx="3" cy="3" r="3"/></g>
    <g transform="translate(192,248) scale(1.3733333333333)"><circle cx="3" cy="3" r="3"/></g>
    <g transform="translate(208,248) scale(1.3733333333333)"><circle cx="3" cy="3" r="3"/></g>
    <g transform="translate(216,248) scale(1.3733333333333)"><circle cx="3" cy="3" r="3"/></g>
    <g transform="translate(240,248) scale(1.3733333333333)"><circle cx="3" cy="3" r="3"/></g>
    <g transform="translate(248,248) scale(1.3733333333333)"><circle cx="3" cy="3" r="3"/></g>
    <g transform="translate(264,248) scale(1.3733333333333)"><circle cx="3" cy="3" r="3"/></g>
    <g transform="translate(80,256) scale(1.3733333333333)"><circle cx="3" cy="3" r="3"/></g>
    <g transform="translate(88,256) scale(1.3733333333333)"><circle cx="3" cy="3" r="3"/></g>
    <g transform="translate(96,256) scale(1.3733333333333)"><circle cx="3" cy="3" r="3"/></g>
    <g transform="translate(104,256) scale(1.3733333333333)"><circle cx="3" cy="3" r="3"/></g>
    <g transform="translate(112,256) scale(1.3733333333333)"><circle cx="3" cy="3" r="3"/></g>
    <g transform="translate(136,256) scale(1.3733333333333)"><circle cx="3" cy="3" r="3"/></g>
    <g transform="translate(144,256) scale(1.3733333333333)"><circle cx="3" cy="3" r="3"/></g>
    <g transform="translate(168,256) scale(1.3733333333333)"><circle cx="3" cy="3" r="3"/></g>
    <g transform="translate(176,256) scale(1.3733333333333)"><circle cx="3" cy="3" r="3"/></g>
    <g transform="translate(216,256) scale(1.3733333333333)"><circle cx="3" cy="3" r="3"/></g>
    <g transform="translate(224,256) scale(1.3733333333333)"><circle cx="3" cy="3" r="3"/></g>
    <g transform="translate(248,256) scale(1.3733333333333)"><circle cx="3" cy="3" r="3"/></g>
    <g transform="translate(96,264) scale(1.3733333333333)"><circle cx="3" cy="3" r="3"/></g>
    <g transform="translate(104,264) scale(1.3733333333333)"><circle cx="3" cy="3" r="3"/></g>
    <g transform="translate(112,264) scale(1.3733333333333)"><circle cx="3" cy="3" r="3"/></g>
    <g transform="translate(120,264) scale(1.3733333333333)"><circle cx="3" cy="3" r="3"/></g>
    <g transform="translate(128,264) scale(1.3733333333333)"><circle cx="3" cy="3" r="3"/></g>
    <g transform="translate(136,264) scale(1.3733333333333)"><circle cx="3" cy="3" r="3"/></g>
    <g transform="translate(144,264) scale(1.3733333333333)"><circle cx="3" cy="3" r="3"/></g>
    <g transform="translate(160,264) scale(1.3733333333333)"><circle cx="3" cy="3" r="3"/></g>
    <g transform="translate(176,264) scale(1.3733333333333)"><circle cx="3" cy="3" r="3"/></g>
    <g transform="translate(184,264) scale(1.3733333333333)"><circle cx="3" cy="3" r="3"/></g>
    <g transform="translate(192,264) scale(1.3733333333333)"><circle cx="3" cy="3" r="3"/></g>
    <g transform="translate(200,264) scale(1.3733333333333)"><circle cx="3" cy="3" r="3"/></g>
    <g transform="translate(216,264) scale(1.3733333333333)"><circle cx="3" cy="3" r="3"/></g>
    <g transform="translate(224,264) scale(1.3733333333333)"><circle cx="3" cy="3" r="3"/></g>
    <g transform="translate(232,264) scale(1.3733333333333)"><circle cx="3" cy="3" r="3"/></g>
    <g transform="translate(256,264) scale(1.3733333333333)"><circle cx="3" cy="3" r="3"/></g>
    <g transform="translate(88,272) scale(1.3733333333333)"><circle cx="3" cy="3" r="3"/></g>
    <g transform="translate(96,272) scale(1.3733333333333)"><circle cx="3" cy="3" r="3"/></g>
    <g transform="translate(112,272) scale(1.3733333333333)"><circle cx="3" cy="3" r="3"/></g>
    <g transform="translate(120,272) scale(1.3733333333333)"><circle cx="3" cy="3" r="3"/></g>
    <g transform="translate(128,272) scale(1.3733333333333)"><circle cx="3" cy="3" r="3"/></g>
    <g transform="translate(136,272) scale(1.3733333333333)"><circle cx="3" cy="3" r="3"/></g>
    <g transform="translate(160,272) scale(1.3733333333333)"><circle cx="3" cy="3" r="3"/></g>
    <g transform="translate(192,272) scale(1.3733333333333)"><circle cx="3" cy="3" r="3"/></g>
    <g transform="translate(208,272) scale(1.3733333333333)"><circle cx="3" cy="3" r="3"/></g>
    <g transform="translate(216,272) scale(1.3733333333333)"><circle cx="3" cy="3" r="3"/></g>
    <g transform="translate(256,272) scale(1.3733333333333)"><circle cx="3" cy="3" r="3"/></g>
    <g transform="translate(264,272) scale(1.3733333333333)"><circle cx="3" cy="3" r="3"/></g>
    <g transform="translate(16,16)"><g transform="scale(4)"><path d="M4.5,14h5.1C12,14,14,12,14,9.6V4.5C14,2,12,0,9.5,0H4.4C2,0,0,2,0,4.4v5.1C0,12,2,14,4.5,14z M12,4.8v4.4 c0,1.5-1.3,2.8-2.8,2.8H4.8C3.2,12,2,10.8,2,9.2V4.8C2,3.3,3.3,2,4.8,2h4.4C10.8,2,12,3.2,12,4.8z"/></g></g>
    <g transform="translate(224,16)"><g transform="scale(4)"><path d="M4.5,14h5.1C12,14,14,12,14,9.6V4.5C14,2,12,0,9.5,0H4.4C2,0,0,2,0,4.4v5.1C0,12,2,14,4.5,14z M12,4.8v4.4 c0,1.5-1.3,2.8-2.8,2.8H4.8C3.2,12,2,10.8,2,9.2V4.8C2,3.3,3.3,2,4.8,2h4.4C10.8,2,12,3.2,12,4.8z"/></g></g>
    <g transform="translate(16,224)"><g transform="scale(4)"><path d="M4.5,14h5.1C12,14,14,12,14,9.6V4.5C14,2,12,0,9.5,0H4.4C2,0,0,2,0,4.4v5.1C0,12,2,14,4.5,14z M12,4.8v4.4 c0,1.5-1.3,2.8-2.8,2.8H4.8C3.2,12,2,10.8,2,9.2V4.8C2,3.3,3.3,2,4.8,2h4.4C10.8,2,12,3.2,12,4.8z"/></g></g>
    <g transform="translate(32,32)"><g transform="scale(4)"><circle cx="3" cy="3" r="3"/></g></g>
    <g transform="translate(240,32)"><g transform="scale(4)"><circle cx="3" cy="3" r="3"/></g></g>
    <g transform="translate(32,240)"><g transform="scale(4)"><circle cx="3" cy="3" r="3"/></g></g>
</g></svg>
